<?xml version="1.0" encoding="UTF-8"?>
<svg width="24px" height="24px" viewBox="0 0 24 24" stroke-width="1.5" fill="none" xmlns="http://www.w3.org/2000/svg" color="#8B5CF6">
  <path d="M4 10h16M4 19h16M4 6c0-1.886 0-2.828.586-3.414C5.172 2 6.114 2 8 2h8c1.886 0 2.828 0 3.414.586C20 3.172 20 4.114 20 6v12c0 1.886 0 2.828-.586 3.414C18.828 22 17.886 22 16 22H8c-1.886 0-2.828 0-3.414-.586C4 20.828 4 19.886 4 18V6z" stroke="#8B5CF6" stroke-width="1.5" stroke-linecap="round" stroke-linejoin="round"></path>
  <path d="M13.5 15.5c0 .828-.672 1.5-1.5 1.5s-1.5-.672-1.5-1.5.672-1.5 1.5-1.5 1.5.672 1.5 1.5zM8 6v4M16 6v4" stroke="#8B5CF6" stroke-width="1.5" stroke-linecap="round" stroke-linejoin="round"></path>
</svg>